<svg width="186" height="198" viewBox="0 0 186 198" fill="none" xmlns="http://www.w3.org/2000/svg">
<path d="M56.8281 2.89911C61.4713 2.96456 65.8151 4.00904 69.6855 6.00751C77.1806 10.0163 83.7463 18.1131 86.4619 33.7917V33.864L86.4932 34.0378C87.2673 38.373 87.8872 42.7484 88.5166 47.1686C89.1443 51.5768 89.7817 56.0289 90.584 60.4567C92.1893 69.3169 94.4727 78.1757 98.7627 86.6843C107.419 103.922 124.291 118.098 155.923 127.025V127.026C168.782 130.662 176.212 136.974 180.073 143.924L180.08 143.937C184.023 150.918 184.701 159.108 182.399 167.131C177.726 183.11 161.361 197.771 136.419 195.698L136.415 195.697C80.3095 191.137 47.7037 174.936 28.584 152.291L28.582 152.289L27.6904 151.219C9.1567 128.654 2.71455 98.6341 2.03418 64.1423V64.1384L2.02051 62.8171C2.0521 35.1588 21.6671 13.0377 41.9092 5.62665L41.9102 5.62762C47.0661 3.75274 52.1039 2.83349 56.8281 2.89911Z" stroke="#ED6E29" stroke-opacity="0.2" stroke-width="4"/>
</svg>
