<svg width="225" height="243" viewBox="0 0 225 243" fill="none" xmlns="http://www.w3.org/2000/svg">
<path d="M53.436 32.0304C48.7796 33.209 44.1244 35.4232 39.6465 38.5567C21.8639 51.056 8.61007 77.8801 16.4584 104.851C25.8558 137.345 39.7414 164.425 63.7421 181.059C87.6784 197.711 122.534 204.6 175.993 194.834C200.561 190.391 212.742 171.935 213.122 155.052C213.271 146.587 210.451 138.641 204.656 132.736C198.925 126.813 189.94 122.66 176.701 122.478C145.514 122.064 126.919 113.235 115.061 99.9073C103.22 86.6441 98.1517 70.0471 90.9016 54.5871L90.8843 54.5226C84.2671 40.136 75.713 33.7268 67.0223 31.7048C62.6211 30.7432 58.0279 30.869 53.436 32.0304Z" fill="#ED6E29" fill-opacity="0.2"/>
<path d="M43.5856 54.1043C47.8953 51.0885 52.331 48.9885 56.7185 47.8778C61.0274 46.788 65.3009 46.6771 69.3721 47.5638C77.2929 49.4102 85.3801 55.2662 91.7898 69.1182L91.8075 69.1842L91.883 69.345C93.6778 73.1723 95.3403 77.0749 97.0229 81.0189C98.7007 84.9515 100.399 88.9245 102.244 92.8338C105.937 100.656 110.261 108.313 116.362 115.147C128.694 129.006 147.891 137.967 179.466 138.386L179.466 138.387C192.281 138.563 200.72 142.566 206.011 148.035L206.021 148.045C211.394 153.521 214.053 160.924 213.914 168.915C213.556 184.864 202.047 202.504 178.43 206.774L178.426 206.775C125.263 216.488 91.0164 209.562 67.677 193.326L67.6737 193.325L66.5817 192.555C43.8035 176.245 30.3735 150.021 21.1719 118.204L21.1711 118.201L20.8308 116.98C13.9956 91.3535 26.6742 65.9924 43.5844 54.1036L43.5856 54.1043Z" stroke="#ED6E29" stroke-opacity="0.2" stroke-width="4"/>
</svg>
