<svg width="187" height="198" viewBox="0 0 187 198" fill="none" xmlns="http://www.w3.org/2000/svg">
<path d="M57.1596 0.899655C52.1582 0.830191 46.8789 1.80268 41.5302 3.74767C20.2743 11.5276 -0.287054 34.9369 0.338121 64.1812C1.03276 99.3994 7.7013 130.38 27.3596 153.581C46.9484 176.782 80.1521 193.106 136.557 197.691C162.467 199.844 179.694 184.562 184.626 167.682C187.057 159.208 186.362 150.455 182.125 142.953C177.957 135.451 170.038 128.852 156.771 125.101C125.512 116.279 109.188 102.386 100.852 85.7845C92.5167 69.2521 91.8915 51.1915 88.7656 33.6866V33.6171C85.9871 17.3626 79.1102 8.61014 70.9134 4.23391C66.7456 2.08053 62.0915 0.969119 57.1596 0.899655Z" fill="#ED6E29" fill-opacity="0.2"/>
</svg>
