<svg width="169" height="194" viewBox="0 0 169 194" fill="none" xmlns="http://www.w3.org/2000/svg">
<path d="M51.4531 0.918322C46.9253 0.850281 42.1462 1.80284 37.3046 3.70797C18.0635 11.3285 -0.544541 34.258 0.0290282 62.903C0.667035 97.3994 6.71212 127.745 24.5148 150.471C42.2546 173.196 72.3182 189.186 123.383 193.676C146.84 195.786 162.431 180.817 166.892 164.283C169.09 155.982 168.459 147.409 164.621 140.061C160.846 132.712 153.676 126.248 141.663 122.574C113.363 113.933 98.5809 100.325 91.0303 84.0634C83.4847 67.8807 82.9098 50.203 80.0803 33.0676C80.0765 33.0448 80.0746 33.0217 80.0746 32.9986C80.0746 32.9764 80.0728 32.9539 80.0693 32.932C77.5463 17.0319 71.3218 8.46779 63.9053 4.18424C60.1316 2.075 55.918 0.986362 51.4531 0.918322Z" fill="#552D17" fill-opacity="0.08"/>
</svg>
