<svg width="169" height="194" viewBox="0 0 169 194" fill="none" xmlns="http://www.w3.org/2000/svg">
<path d="M51.5855 2.91785C55.7319 2.98107 59.6125 3.98811 63.0765 5.92078C69.8082 9.81267 75.7775 17.7296 78.2429 33.1688C78.2482 33.2438 78.2571 33.3184 78.2694 33.3925C78.9705 37.6384 79.5323 41.9233 80.1028 46.2499C80.6719 50.565 81.2494 54.9208 81.9764 59.2528C83.4309 67.9197 85.4986 76.5843 89.3797 84.9081C97.2208 101.793 112.526 115.718 141.241 124.486L141.241 124.487C152.807 128.025 159.509 134.169 163.005 140.974L163.011 140.986C166.588 147.835 167.209 155.887 165.12 163.77C160.877 179.484 146.09 193.696 123.723 191.684H123.72C72.9973 187.224 43.5403 171.386 26.2532 149.24L26.2513 149.237L25.4434 148.191C8.66175 126.091 2.81647 96.6717 2.19124 62.8661L2.19026 62.8631C1.63428 35.0897 19.7027 12.8961 38.1985 5.56824L38.1995 5.56921C42.5487 3.85787 46.793 2.9689 50.7896 2.91687L51.5855 2.91785Z" stroke="#552D17" stroke-opacity="0.1" stroke-width="4"/>
</svg>
