<svg width="132" height="132" viewBox="0 0 132 132" fill="none" xmlns="http://www.w3.org/2000/svg">
<path d="M39.1562 27.2952C29.2788 24.4731 22.6939 42.5816 20.6361 51.9887L17.1085 63.4537C15.3446 85.5015 35.6286 85.5015 39.1562 84.6196C42.6839 83.7377 55.0306 74.0367 71.7869 88.1472C88.5432 102.258 107.945 99.6121 108.827 66.0995C109.709 32.5869 84.1336 47.5793 70.0231 45.8155C55.9125 44.0517 51.503 30.8228 39.1562 27.2952Z" fill="#D7DA31" fill-opacity="0.3"/>
<path d="M21.5276 54.9753C23.5854 44.9803 30.8759 26.4014 43.5754 32.0456C59.4498 39.1009 59.4498 49.6838 76.2061 49.6838C92.9624 49.6838 129.121 47.038 107.073 84.9602C85.0252 122.882 73.5604 82.3144 58.5679 81.4325C43.5754 80.5506 21.5276 100.835 18 70.8496" stroke="#552D17" stroke-width="1.5" stroke-linecap="round"/>
<path d="M35.988 46.315C35.5286 47.6393 35.3559 49.4815 36.3842 50.6043C38.0101 52.3798 42.9429 52.4206 43.9519 49.935C45.1708 46.9321 42.6873 44.7398 39.9358 44.4299C38.2478 44.2398 37.2593 45.2974 36.3568 46.5609" stroke="#552D17" stroke-linecap="round"/>
<path d="M33.2829 65.4933C32.214 69.4401 38.2087 68.7788 40.113 67.3647C41.2255 66.5386 41.3683 65.1571 40.4272 64.1136C39.5521 63.1434 38.2605 62.6549 37.0121 62.4129C35.816 62.181 35.0361 62.4516 33.8976 62.5427" stroke="#552D17" stroke-linecap="round"/>
<path d="M60.4596 53.5679C60.0934 54.8495 59.4751 56.4286 60.5005 57.5771C61.6617 58.8776 64.229 59.2076 65.6982 58.2875C66.6019 57.7215 67.2544 56.2338 66.2788 55.412C65.4519 54.7154 64.1909 54.4399 63.1438 54.4148C61.9711 54.3867 61.1702 54.8577 60.0907 55.1661" stroke="#552D17" stroke-linecap="round"/>
<path d="M88.3676 58.6087C86.6133 58.8507 86.1904 60.4814 87.0289 61.9486C88.614 64.7226 93.3281 64.6112 95.7987 63.2395C97.2116 62.455 96.9856 61.2444 95.9831 60.1933C94.3555 58.4868 91.8626 57.8173 89.5696 58.0213C87.8248 58.1766 86.8175 58.9097 86.5234 60.5758" stroke="#552D17" stroke-linecap="round"/>
<path d="M94.8836 70.5347C94.3456 70.6423 94.0215 71.0331 93.8864 71.5592C93.51 73.025 94.2495 73.7704 95.6827 73.9224C97.3643 74.1007 99.4742 73.549 100.716 72.3378C101.674 71.4042 100.897 70.3864 100.074 69.7082C99.6185 69.3321 99.1202 68.9971 98.5855 68.7452C95.4777 67.2809 97.8165 68.8192 94.5148 67.707" stroke="#552D17" stroke-linecap="round"/>
<path d="M85.9123 82.5826C84.8688 82.9892 83.8591 84.2242 84.3551 85.4376C84.9271 86.8369 87.2196 86.8869 88.4121 86.5441C91.4115 85.6819 89.0616 83.3136 87.3876 82.4324C86.2498 81.8334 84.9113 81.4992 83.6242 81.6196C82.6564 81.7101 82.3826 82.1586 81.6094 82.5826" stroke="#552D17" stroke-linecap="round"/>
<path d="M48.5329 72.3779C48.7377 74.8865 52.1653 75.412 53.5871 73.457C54.2794 72.5051 53.5526 71.3229 52.5626 71.0119C51.56 70.6969 50.3856 70.7243 49.4208 71.1485C48.7396 71.448 48.6004 71.8689 48.1641 72.3779" stroke="#552D17" stroke-linecap="round"/>
</svg>
