<svg width="132" height="132" viewBox="0 0 132 132" fill="none" xmlns="http://www.w3.org/2000/svg">
<path d="M24.976 70.1841C17.776 89.7841 43.6427 91.0174 57.476 89.1841C71.6427 94.1841 101.876 99.9841 109.476 83.1841C117.076 66.3841 102.309 66.1841 93.976 68.1841C112.776 62.5841 103.476 53.1841 96.476 49.1841C98.6427 48.8507 103.276 46.1841 104.476 38.1841C105.676 30.1841 87.976 32.8507 78.976 35.1841C79.976 26.6841 79.476 25.1841 61.976 18.6841C44.476 12.1841 44.476 54.1841 43.476 52.6841C42.476 51.1841 33.476 45.1841 26.476 48.1841C20.876 50.5841 26.8094 63.8507 30.476 70.1841H24.976Z" fill="#5EC100" fill-opacity="0.3"/>
<path d="M57.894 114.405C57.894 106.109 58.0743 97.7934 57.894 89.4998C57.8652 88.1742 55.4933 87.4901 54.5314 86.8097C50.6745 84.0817 47.0488 81.0706 44.2266 77.3076" stroke="#552D17" stroke-width="1.5" stroke-linecap="round"/>
<path d="M57.8906 87.8511C58.3078 85.9041 59.5517 83.9173 60.3421 82.1238C62.6726 76.8354 65.2951 71.8382 68.0436 66.7642" stroke="#552D17" stroke-width="1.5" stroke-linecap="round"/>
<path d="M91.2158 67.8706C92.1622 67.776 93.1403 67.5679 94.1036 67.2555C92.159 67.3401 90.2168 67.5671 88.3088 67.914C87.3553 68.0874 90.2515 67.9671 91.2158 67.8706Z" fill="#5EC100" fill-opacity="0.3"/>
<path d="M53.5978 89.8036C50.8475 90.2819 48.0913 90.1613 45.3106 90.2809C41.1221 90.461 36.6007 91.0917 32.5109 89.847C25.7324 87.784 17.7709 80.7284 20.579 72.882C21.4534 70.4391 23.1048 71.2805 25.0915 71.0597C26.2003 70.9365 24.4698 66.5986 24.3538 66.287C22.607 61.5939 20.95 57.692 20.8177 52.5978C20.6309 45.4067 28.2694 46.1459 32.9882 48.7796C34.2214 49.4679 40.4501 55.846 41.0585 52.728C42.9764 42.8988 41.5618 32.1537 47.1763 23.2888C52.8309 14.3605 69.863 21.8088 74.4244 28.4954C75.773 30.4723 76.0793 32.9467 75.4657 35.2207C75.42 35.3901 74.679 36.9528 74.8583 36.9996C75.5364 37.1765 76.7584 36.7514 77.3314 36.6308C79.7896 36.1133 82.2459 35.6337 84.7509 35.3942C87.8691 35.0962 96.4838 33.6568 98.4617 37.1731C99.7112 39.3944 97.8828 43.6355 96.6828 45.5038C95.4836 47.3708 93.5919 48.7742 91.6497 49.7993C90.806 50.2445 94.1615 50.734 94.6869 50.9274C97.7117 52.0407 101.506 53.785 101.955 57.3706C102.699 63.3237 96.4695 67.3453 91.2158 67.8706C90.2515 67.9671 87.3553 68.0874 88.3088 67.914C91.2031 67.3878 94.1762 67.1374 97.1167 67.2415C100.776 67.3711 104.794 68.2023 106.185 72.0577C107.172 74.7953 106.821 78.2586 105.773 80.9089C100.476 94.3074 85.3833 91.0872 73.9037 89.4131" stroke="#552D17" stroke-width="1.5" stroke-linecap="round"/>
</svg>
