<svg width="132" height="132" viewBox="0 0 132 132" fill="none" xmlns="http://www.w3.org/2000/svg">
<path d="M47.0541 31.3287C6.94105 41.8438 39.1029 82.1191 60.1979 100.942L66.0396 106.784C71.3945 100.78 84.7331 86.9223 95.2481 79.5228C108.392 70.2734 118.128 29.3815 95.2481 25.4871C76.9441 22.3715 68.1491 35.2232 66.0396 42.0385C58.2507 31.5234 50.1372 30.5174 47.0541 31.3287Z" fill="#CB0000" fill-opacity="0.2"/>
<path d="M54.9372 100.829C47.8152 96.454 46.357 94.0584 40.1749 87.7532C2.96635 49.804 35.3939 25.2104 51.6903 31.1556C54.7613 32.276 58.2635 35.7276 62.1969 41.5105C63.1983 36.7563 66.0603 32.9389 70.7828 30.0586C103.641 10.0172 119.147 54.0798 87.488 82.688C79.865 89.5783 67.6698 101.063 62.633 105.81" stroke="#552D17" stroke-width="1.5" stroke-linecap="round" stroke-linejoin="round"/>
</svg>
