<svg width="122" height="90" viewBox="0 0 122 90" fill="none" xmlns="http://www.w3.org/2000/svg">
<path d="M29.1206 0C46.0294 0 58.2372 13.9601 58.2372 34.6329C58.1313 64.6653 35.5527 85.8993 2.9792 89.9756C-0.0383406 90.3568 -1.203 86.164 1.57631 84.9305C14.07 79.3719 20.3856 72.3204 21.2009 65.343C21.8097 60.1284 18.9774 55.5598 15.4146 54.7022C6.18732 52.484 0.00401047 40.9909 0.00401047 29.1166C0.00401047 21.3944 3.07164 13.9885 8.53207 8.52806C13.9925 3.06763 21.3984 0 29.1206 0ZM92.6478 0C109.557 0 121.764 13.9601 121.764 34.6329C121.658 64.6653 99.0799 85.8993 66.5063 89.9756C63.4888 90.3568 62.3241 86.164 65.1034 84.9305C77.5971 79.3719 83.9128 72.3204 84.728 65.343C85.3368 60.1284 82.5046 55.5598 78.9418 54.7022C69.7145 52.484 63.5311 40.9909 63.5311 29.1166C63.5311 21.3944 66.5988 13.9885 72.0592 8.52806C77.5196 3.06763 84.9255 0 92.6478 0Z" fill="#ED6E29" fill-opacity="0.2"/>
</svg>
