<svg width="132" height="132" viewBox="0 0 132 132" fill="none" xmlns="http://www.w3.org/2000/svg">
<path d="M55.2654 27.2604C90.7084 13.0062 108.237 36.7311 112.571 50.3754C120.276 73.4904 96.1982 123.573 55.2654 108.163C14.3326 92.753 10.9616 45.0782 55.2654 27.2604Z" fill="#552D17" fill-opacity="0.2"/>
<path d="M104.127 38.5982C93.0506 25.7565 63.0974 7.39295 31.8922 36.6719C-7.11436 73.2707 45.3759 118.056 74.7512 110.351C104.127 102.646 125.315 56.416 86.7903 34.2641C48.2653 12.1123 9.74031 54.0082 39.5972 87.236C69.454 120.464 118.092 73.7522 93.5322 49.6741C68.9725 25.596 33.3369 41.4876 42.005 67.0104C50.6731 92.5332 81.4931 90.6069 88.7165 64.6026C95.94 38.5982 42.005 36.1904 48.2653 64.6026C54.5256 93.0147 99.3109 66.5288 75.7144 53.0451C52.1178 39.5613 47.3022 73.7522 68.0094 71.3444C88.7165 68.9366 76.1959 51.1188 66.5647 55.9344" stroke="#552D17" stroke-width="1.5" stroke-linecap="round"/>
</svg>
