<svg width="187" height="188" viewBox="0 0 187 188" fill="none" xmlns="http://www.w3.org/2000/svg">
<path d="M179.85 111.034C197.977 132.874 179.153 165.479 151.176 160.7L123.239 155.927C114.443 154.425 105.43 156.84 98.5636 162.539L76.756 180.64C54.9165 198.768 22.3116 179.943 27.0908 151.966L31.8629 124.03C33.3655 115.234 30.9503 106.22 25.2511 99.354L7.15008 77.5464C-10.9774 55.7069 7.84705 23.102 35.8244 27.8811L63.7608 32.6533C72.5567 34.1559 81.5702 31.7407 88.4364 26.0415L110.244 7.94046C132.083 -10.1871 164.688 8.63742 159.909 36.6147L155.137 64.5511C153.635 73.3471 156.05 82.3605 161.749 89.2268L179.85 111.034Z" fill="#ED6E29" fill-opacity="0.2"/>
</svg>
