<svg width="187" height="188" viewBox="0 0 187 188" fill="none" xmlns="http://www.w3.org/2000/svg">
<path d="M111.521 9.47983C131.932 -7.46185 162.404 10.1306 157.938 36.2777L153.166 64.2142C151.565 73.5855 154.138 83.1888 160.21 90.5042L178.311 112.312C195.252 132.723 177.66 163.194 151.513 158.728L123.576 153.956C114.205 152.356 104.602 154.928 97.2861 161L75.4785 179.101C55.0677 196.043 24.5962 178.45 29.0625 152.303L33.834 124.367C35.4348 114.995 32.8621 105.392 26.79 98.0765L8.68945 76.2689C-8.25222 55.8581 9.34023 25.3866 35.4873 29.8529L63.4238 34.6244C72.7952 36.2252 82.3985 33.6525 89.7139 27.5804L111.521 9.47983Z" stroke="#ED6E29" stroke-opacity="0.2" stroke-width="4"/>
</svg>
